<?xml version="1.0" standalone="no"?>
<!DOCTYPE svg PUBLIC "-//W3C//DTD SVG 20010904//EN"
 "http://www.w3.org/TR/2001/REC-SVG-20010904/DTD/svg10.dtd">
<svg version="1.0" xmlns="http://www.w3.org/2000/svg"
 width="480.000000pt" height="480.000000pt" viewBox="0 0 480.000000 480.000000"
 preserveAspectRatio="xMidYMid meet">
<metadata>
Created by potrace 1.11, written by Peter Selinger 2001-2013
</metadata>
<g transform="translate(0.000000,480.000000) scale(0.100000,-0.100000)"
fill="#000000" stroke="none">
<path d="M2176 4580 c-120 -121 -226 -221 -235 -222 -16 -1 -26 -3 -46 -8 -5
-2 -14 -4 -20 -5 -5 -2 -12 -4 -15 -5 -3 -1 -15 -3 -26 -6 -12 -2 -57 -15
-100 -28 -42 -14 -81 -23 -85 -20 -4 2 -9 1 -11 -3 -1 -5 -34 -19 -73 -32
-255 -87 -564 -232 -720 -336 -55 -37 -102 -71 -103 -76 -2 -5 -8 -7 -13 -3
-5 3 -9 1 -9 -4 0 -10 -35 -53 -41 -49 -2 1 -3 0 -2 -2 1 -2 -6 -16 -17 -31
-28 -39 -33 -85 -14 -126 13 -28 22 -34 47 -34 42 0 103 44 110 78 6 31 93
132 114 132 7 0 13 4 13 8 0 11 92 75 107 75 7 0 10 3 8 7 -5 8 130 81 138 75
4 -3 5 -2 2 2 -11 14 457 219 475 208 4 -3 10 0 12 5 2 6 10 12 18 14 22 3 62
16 85 26 18 8 185 59 209 64 6 2 30 8 54 15 24 7 55 14 70 16 15 3 68 13 117
24 50 11 117 23 150 26 33 4 63 9 66 11 29 17 468 25 624 11 86 -8 202 -28
236 -42 10 -4 16 -1 16 8 0 8 -7 14 -16 13 -9 0 -59 10 -111 22 -124 28 -203
40 -325 47 l-100 7 -180 179 c-99 98 -182 179 -185 179 -3 -1 -103 -100 -224
-220z"/>
<path d="M2757 4304 c-1 -1 -56 -4 -122 -8 -66 -3 -129 -8 -140 -10 -11 -2
-42 -7 -70 -10 -143 -19 -342 -67 -510 -125 -66 -23 -124 -43 -130 -44 -5 -2
-32 -13 -59 -25 -27 -12 -53 -22 -58 -22 -12 0 -1443 -1428 -1437 -1435 2 -2
150 -150 328 -329 l323 -324 4 -54 c3 -29 6 -60 8 -68 19 -89 53 -155 110
-214 25 -25 49 -46 53 -46 5 0 16 -7 25 -15 10 -8 18 -12 18 -9 0 4 6 1 13 -5
14 -11 87 -39 120 -46 29 -6 19 11 -24 41 -61 42 -123 140 -134 213 -3 14 -9
43 -14 63 -9 38 -7 128 3 186 10 53 55 166 72 179 8 6 14 15 13 19 -9 23 130
176 226 249 70 54 293 175 321 175 15 0 15 0 19 45 12 147 20 223 30 315 2 19
7 60 10 90 7 76 13 123 26 210 6 41 12 84 14 95 2 11 5 34 8 50 6 31 22 129
32 200 4 22 9 49 12 60 3 11 7 29 8 40 2 11 8 40 15 65 7 25 14 52 15 61 20
103 52 150 130 188 117 58 151 43 120 -55 -11 -33 -20 -61 -20 -64 -1 -3 -7
-25 -14 -50 -7 -25 -15 -52 -17 -60 -1 -8 -12 -46 -23 -84 -24 -80 -82 -331
-96 -411 -3 -16 -8 -37 -10 -45 -2 -8 -7 -28 -10 -45 -3 -16 -7 -42 -10 -58
-9 -52 -24 -142 -29 -172 -2 -16 -8 -50 -12 -75 -8 -50 -10 -63 -18 -135 -3
-27 -9 -62 -12 -77 -3 -14 -1 -28 3 -31 5 -3 43 3 84 14 80 21 77 20 194 43
44 9 90 18 101 20 21 4 34 6 159 26 184 29 550 31 689 4 11 -2 38 -6 61 -10
139 -20 285 -68 435 -142 63 -31 118 -58 121 -60 4 -2 17 13 29 33 12 19 29
42 37 50 8 8 12 15 9 15 -3 0 8 22 24 49 80 136 151 342 176 511 15 103 7 248
-21 370 -18 81 -65 186 -120 268 -33 48 -132 149 -190 192 -82 62 -297 162
-312 146 -8 -8 -10 -6 72 -54 108 -63 229 -174 267 -246 6 -12 14 -23 18 -26
15 -11 82 -164 98 -225 21 -78 37 -285 23 -285 -3 0 -212 206 -463 458 l-457
457 -72 0 c-39 0 -71 -1 -72 -1z"/>
<path d="M4124 3033 c-20 -93 -133 -361 -156 -371 -5 -2 -8 -9 -8 -16 0 -7
-13 -32 -30 -54 -16 -23 -30 -44 -30 -47 0 -3 -10 -19 -22 -35 l-22 -30 22
-23 c28 -29 39 -95 19 -103 -18 -6 -72 20 -84 40 -6 12 -14 9 -40 -14 -17 -16
-29 -30 -27 -33 2 -2 -16 -23 -41 -46 -25 -23 -45 -44 -45 -47 0 -11 -125
-124 -137 -124 -6 0 -15 -5 -19 -12 -5 -7 -2 -8 7 -3 41 23 -70 -66 -194 -157
-119 -87 -421 -258 -477 -270 -8 -2 -17 -6 -20 -9 -11 -13 -274 -115 -345
-133 -5 -2 -23 -8 -40 -15 -16 -6 -36 -14 -42 -16 -10 -3 -12 -61 -8 -247 2
-134 6 -256 8 -273 4 -29 16 -113 22 -167 11 -81 61 -288 70 -288 3 0 32 28
66 63 34 34 66 61 70 59 5 -1 9 3 9 9 0 14 281 295 292 291 4 -1 7 2 6 6 -4
12 73 87 86 84 6 -2 8 0 4 3 -9 10 233 251 247 247 5 -2 7 -1 3 3 -9 9 85 104
96 97 5 -3 6 0 3 5 -8 13 27 46 37 36 4 -5 6 -3 4 3 -4 12 512 530 524 527 4
-2 8 3 8 10 0 16 122 133 135 129 5 -2 7 -1 3 3 -8 9 424 444 435 438 4 -2 7
3 7 11 0 9 4 16 9 16 5 0 16 12 26 26 l17 27 -213 213 c-118 118 -217 214
-221 214 -4 0 -10 -12 -14 -27z"/>
<path d="M2614 2702 l-61 -3 -17 -72 c-9 -40 -17 -82 -17 -94 1 -13 -3 -23 -7
-23 -5 0 -9 -12 -9 -27 -1 -16 -8 -66 -17 -113 -28 -153 -34 -189 -42 -260 -3
-30 -7 -57 -9 -60 -2 -3 -6 -41 -10 -85 -4 -44 -9 -89 -11 -99 -2 -11 -6 -56
-10 -100 -4 -45 -8 -91 -9 -103 -1 -13 -1 -23 0 -23 16 0 237 85 286 111 22
11 39 16 39 12 0 -5 4 -3 8 2 4 6 36 24 72 40 107 50 317 180 406 252 23 18
43 33 46 33 3 0 34 26 68 58 35 31 67 56 71 55 5 -2 9 1 9 6 0 6 28 38 63 73
55 55 138 150 175 199 10 13 2 20 -48 47 -78 42 -243 100 -331 117 -13 3 -35
7 -49 10 -46 10 -66 13 -125 20 -33 4 -69 9 -80 11 -11 2 -78 6 -150 10 -71 3
-141 6 -155 7 -14 1 -52 1 -86 -1z"/>
<path d="M2318 2685 c-2 -3 -22 -7 -44 -11 -165 -25 -396 -83 -419 -105 -5 -5
-10 -19 -11 -32 -1 -12 -5 -62 -9 -112 -3 -49 -8 -117 -11 -150 -5 -81 -4
-339 1 -395 6 -57 36 -183 45 -190 11 -8 30 -48 30 -64 0 -23 -29 -46 -59 -46
-57 0 -104 92 -127 250 -16 108 -22 384 -13 585 3 77 3 80 -18 78 -22 -3 -150
-75 -193 -109 -119 -96 -201 -215 -224 -327 -25 -119 6 -280 71 -365 55 -73
200 -141 335 -156 80 -9 240 -9 318 0 36 4 75 8 88 8 12 1 22 3 22 6 0 3 8 6
19 7 30 2 100 23 105 31 2 4 7 48 11 97 13 185 15 211 20 270 2 33 7 78 9 100
3 22 7 65 10 95 7 72 31 241 56 395 11 69 20 127 20 129 0 6 -27 15 -32 11z"/>
<path d="M2165 1459 c-16 -4 -45 -11 -65 -14 -19 -3 -48 -8 -65 -10 -78 -13
-119 -16 -230 -18 -136 -2 -278 9 -305 23 -9 5 -19 7 -22 5 -2 -3 -19 0 -37 5
-20 6 -31 5 -29 -1 2 -5 148 -155 326 -333 203 -203 324 -332 327 -347 2 -13
7 -40 9 -59 3 -19 14 -71 25 -115 59 -239 160 -365 291 -365 l43 0 -20 23
c-24 26 -74 105 -77 121 -1 6 -7 20 -13 31 -14 26 -60 208 -68 265 -6 52 -15
114 -20 150 -11 66 -17 235 -17 433 1 161 -2 217 -11 216 -7 0 -25 -5 -42 -10z"/>
<path d="M2593 503 c-15 -21 -37 -51 -49 -68 l-21 -30 26 -42 c29 -49 39 -52
68 -20 64 71 85 133 58 173 -22 34 -49 30 -82 -13z"/>
<path d="M1897 144 c-2 -2 -70 -6 -153 -8 -131 -4 -199 -9 -199 -15 0 -2 -85
-7 -212 -13 -40 -2 -57 -18 -34 -32 20 -13 224 -34 401 -41 423 -17 717 -20
910 -9 52 2 136 7 185 10 50 2 108 4 130 4 38 -1 210 24 210 30 0 1 14 3 30 5
29 3 105 31 105 39 0 2 -27 1 -60 -1 -58 -5 -60 -4 -60 18 -1 22 -2 22 -14 7
-14 -19 -59 -24 -121 -14 -22 3 -94 9 -160 12 -142 6 -952 13 -958 8z"/>
<path d="M1234 98 c-3 -4 6 -8 20 -8 14 0 26 4 26 8 0 10 -40 10 -46 0z"/>
</g>
</svg>
